<svg width="224" height="120" viewBox="0 0 224 120" fill="none" xmlns="http://www.w3.org/2000/svg">
<path d="M0 0H223.071V96C223.071 109.255 212.326 120 199.071 120H24C10.7452 120 0 109.255 0 96V0Z" fill="white"/>
<path d="M25.6732 48.5157L37.9445 36.3542H64.1606L63.9589 84.1218C63.9589 84.1218 54.4079 84.5909 44.199 84.5609C34.5386 84.5609 25.3173 84.0685 25.3173 83.2436C25.3173 72.705 25.6732 48.5157 25.6732 48.5157Z" fill="white"/>
<path fill-rule="evenodd" clip-rule="evenodd" d="M38.112 35.6248C37.7725 35.763 34.9958 38.1548 31.3784 41.7398C27.8539 45.2329 25.2461 48.1903 25.1156 48.5156C24.4729 50.1175 24 57.7329 24 66.4814C24 76.4036 24.5472 83.2435 25.3173 83.2435C26.0874 83.2435 26.2312 76.4036 26.2312 66.4814C26.2312 58.2006 26.3541 51.2284 25.7626 49.1481C26.8381 49.4279 29.1971 49.417 31.8648 49.417C34.8267 49.417 37.063 49.3987 37.9447 49.0684C38.0284 49.2512 38.1678 49.3448 38.2236 49.3448C38.2794 49.3448 38.5025 49.3065 38.6141 49.0854C38.9473 48.2114 39.0603 45.3702 39.0603 42.4349C39.0603 39.846 38.8732 37.6035 38.6004 36.5106C40.3232 37.0618 45.2472 36.9069 51.0527 36.9069C56.9092 36.9069 61.6507 36.6305 63.3241 36.9069C62.7144 39.5065 62.4874 48.6882 62.4874 60.1243C62.4874 72.6083 63.0452 81.9596 63.0452 83.618C60.2563 83.8944 58.501 83.8944 53.8417 83.8944C48.1426 83.8944 43.5226 84.1419 43.5226 84.4472C43.5226 84.7525 48.1426 85 53.8417 85C59.5408 85 63.8819 84.7236 64.1608 84.4472C64.8724 83.3479 65.2763 72.825 65.2763 60.1243C65.2763 48.1523 64.8138 37.8247 64.1608 35.8014C62.7663 35.525 57.4051 34.9722 51.0527 34.9722C44.9519 34.9722 39.5741 35.0298 38.112 35.6248ZM37.8356 36.5564C36.8918 37.7641 34.775 40.0483 32.2233 42.5771C29.3375 45.4371 26.7673 47.7457 25.7272 48.4452C26.7869 48.1605 29.1116 48.118 31.809 48.118C34.4867 48.118 36.3829 48.1733 37.7774 48.3944C37.5822 47.3441 37.3869 45.0886 37.3869 42.4349C37.3869 39.8816 37.5689 37.6653 37.8356 36.5564Z" fill="#35374B"/>
<path d="M51.6424 50.3616C51.6588 50.0888 51.8834 49.8711 52.1568 49.8711H63.0056C63.2873 49.8711 63.5121 50.0983 63.4952 50.3794C63.378 52.3275 62.7443 59.429 59.5987 63.8412C59.372 64.1593 58.8863 64.0756 58.7403 63.7133C58.2966 62.6127 57.4115 60.6783 56.2732 59.5174C56.1198 59.361 55.8805 59.3425 55.69 59.4508C53.8455 60.4995 50.8975 61.5662 49.2292 62.1323C48.7925 62.2805 48.4109 61.7998 48.6263 61.392C51.0725 56.7622 51.5505 51.8934 51.6424 50.3616Z" fill="#EE5861"/>
<path d="M47.2865 37.1555C47.2713 36.8413 47.441 36.5482 47.7211 36.4049C48.6113 35.9494 49.6347 35.5756 50.7429 35.2838C51.0133 35.2126 51.2372 35.0225 51.3511 34.7671C51.8542 33.6395 52.4354 32.6216 53.0842 31.7725C53.2739 31.5243 53.5899 31.4097 53.8948 31.4779C54.9163 31.7064 55.9875 32.0934 57.0679 32.6051C57.3164 32.7228 57.6046 32.7235 57.8538 32.6073C58.8699 32.1335 59.8733 31.7741 60.8289 31.5588C61.1337 31.4901 61.4496 31.6048 61.6397 31.8527C62.3001 32.714 62.8906 33.741 63.4012 34.8757C63.5127 35.1235 63.7281 35.3097 63.9894 35.3848C64.9203 35.6523 65.7827 35.9809 66.5456 36.3705C66.8258 36.5136 66.9955 36.8066 66.9805 37.1209C66.9387 37.9954 66.7918 38.9238 66.5558 39.8789C66.4908 40.1418 66.544 40.4202 66.7017 40.6402C67.3943 41.6058 67.962 42.5832 68.3649 43.5386C68.4874 43.8292 68.4283 44.1635 68.2133 44.3943C67.5719 45.0824 66.7926 45.742 65.9137 46.3591C65.6883 46.5174 65.5449 46.7681 65.5232 47.0427C65.4292 48.2289 65.2314 49.3441 64.9207 50.3362C64.8271 50.6353 64.5684 50.8518 64.2574 50.8909C63.2372 51.0194 62.1134 51.0172 60.9355 50.9023C60.6577 50.8752 60.3823 50.9754 60.1868 51.1747C59.3289 52.0493 58.4351 52.7984 57.5341 53.3731C57.271 53.5409 56.9354 53.5409 56.6725 53.3728C55.7551 52.786 54.8433 52.0118 53.9689 51.1048C53.7808 50.9096 53.516 50.8071 53.2454 50.824C52.2827 50.8844 51.3619 50.8656 50.511 50.7576C50.2 50.7182 49.9413 50.5019 49.8478 50.2027C49.5563 49.2694 49.3652 48.2241 49.2667 47.1117C49.2428 46.8413 49.1011 46.5948 48.8794 46.4381C48.002 45.8178 47.2224 45.1548 46.5788 44.4628C46.364 44.2319 46.3048 43.8976 46.4275 43.607C46.7586 42.8234 47.2025 42.0236 47.7364 41.2266C47.8869 41.0019 47.9319 40.7224 47.8589 40.462C47.5366 39.3123 47.3367 38.1946 47.2865 37.1555Z" fill="#FFE500"/>
<path d="M62.974 42.4348C62.974 45.4878 60.0139 47.6756 56.9333 47.6756C53.8527 47.6756 51.8182 45.4878 51.8182 42.4348C51.8182 39.3818 54.7309 37.137 57.8115 37.137C60.8921 37.137 62.974 39.3818 62.974 42.4348Z" fill="white"/>
<path d="M82.3034 67.244C82.3034 67.9267 82.3567 68.4387 82.4634 68.78C82.5701 69.1213 82.7621 69.356 83.0394 69.484C83.3381 69.612 83.7754 69.676 84.3514 69.676H87.8074C88.5754 69.676 89.1727 69.6013 89.5994 69.452C90.0261 69.2813 90.3567 69.004 90.5914 68.62C90.8474 68.2147 91.0821 67.6173 91.2954 66.828L91.4874 66.092L92.5754 66.476V71.948L91.9354 72.3L91.6794 71.948C91.4447 71.6493 90.9967 71.5 90.3354 71.5H76.8634L76.5114 70.476L77.1834 70.284C77.9727 70.0493 78.4954 69.7507 78.7514 69.388C79.0074 69.0253 79.1354 68.3853 79.1354 67.468V54.956C79.1354 53.676 79.0287 52.6413 78.8154 51.852C78.6021 51.0627 78.2287 50.316 77.6954 49.612L77.2794 49.036L77.6954 48.524H87.4874C89.3221 48.524 90.5381 48.3 91.1354 47.852L91.7114 47.436L92.2234 47.852V53.548L91.1354 53.932L90.9434 53.196C90.7301 52.4067 90.4954 51.82 90.2394 51.436C90.0047 51.0307 89.6741 50.7533 89.2474 50.604C88.8207 50.4333 88.2234 50.348 87.4554 50.348H84.3514C83.7754 50.348 83.3381 50.412 83.0394 50.54C82.7621 50.668 82.5701 50.9027 82.4634 51.244C82.3567 51.5853 82.3034 52.0973 82.3034 52.78V58.924H86.3674C86.8794 58.924 87.3274 58.8173 87.7114 58.604C88.1167 58.3693 88.5114 57.9853 88.8954 57.452L89.1514 57.1L89.7914 57.452V62.924L88.7034 63.308L88.5114 62.572C88.3194 61.8467 87.9781 61.3667 87.4874 61.132C87.0181 60.876 86.1967 60.748 85.0234 60.748H82.3034V67.244ZM108.683 68.684C108.683 69.3453 109.003 69.676 109.643 69.676C110.176 69.676 110.709 69.484 111.243 69.1L111.851 69.932C111.296 70.5507 110.699 71.0413 110.059 71.404C109.419 71.7667 108.832 71.948 108.299 71.948C107.424 71.948 106.795 71.6813 106.411 71.148C106.027 70.6147 105.835 69.7507 105.835 68.556C104.96 69.7933 104.064 70.668 103.147 71.18C102.229 71.692 101.237 71.948 100.171 71.948C99.1467 71.948 98.1973 71.66 97.3227 71.084C96.448 70.4867 95.744 69.6013 95.2107 68.428C94.6987 67.2547 94.4427 65.836 94.4427 64.172C94.4427 62.3373 94.7733 60.748 95.4347 59.404C96.1173 58.0387 97.0773 56.9933 98.3147 56.268C99.5733 55.5427 101.045 55.18 102.731 55.18C103.84 55.18 104.853 55.3187 105.771 55.596V49.932C105.771 49.676 105.717 49.4947 105.611 49.388C105.525 49.2813 105.365 49.228 105.131 49.228H103.723L103.435 48.396C104.053 47.8413 104.757 47.3827 105.547 47.02C106.357 46.6573 107.061 46.476 107.659 46.476C107.957 46.476 108.203 46.572 108.395 46.764C108.587 46.956 108.683 47.2013 108.683 47.5V68.684ZM97.8027 63.564C97.8027 65.5907 98.144 67.084 98.8267 68.044C99.5307 69.004 100.405 69.484 101.451 69.484C102.304 69.484 103.104 69.2493 103.851 68.78C104.597 68.2893 105.259 67.5533 105.835 66.572V57.932C104.853 57.2707 103.808 56.94 102.699 56.94C101.141 56.94 99.936 57.5267 99.0827 58.7C98.2293 59.852 97.8027 61.4733 97.8027 63.564ZM127.195 68.684C127.195 69.3453 127.504 69.676 128.123 69.676C128.614 69.676 129.136 69.484 129.691 69.1L130.299 69.932C129.808 70.5293 129.232 71.02 128.571 71.404C127.931 71.7667 127.334 71.948 126.779 71.948C125.926 71.948 125.296 71.7027 124.891 71.212C124.507 70.7213 124.315 69.9427 124.315 68.876C123.824 69.8147 123.088 70.5613 122.107 71.116C121.147 71.6707 120.08 71.948 118.907 71.948C117.371 71.948 116.166 71.4893 115.291 70.572C114.438 69.6333 114.011 68.3213 114.011 66.636V58.636C114.011 58.1667 113.798 57.932 113.371 57.932H111.963L111.675 57.1C112.23 56.5453 112.902 56.0867 113.691 55.724C114.502 55.3613 115.238 55.18 115.899 55.18C116.198 55.18 116.443 55.276 116.635 55.468C116.827 55.66 116.923 55.9053 116.923 56.204V65.9C116.923 67.18 117.179 68.1507 117.691 68.812C118.224 69.4733 118.992 69.804 119.995 69.804C121.424 69.804 122.534 69.1853 123.323 67.948C124.134 66.7107 124.539 65.004 124.539 62.828C124.539 61.2493 124.443 60.0227 124.251 59.148C124.08 58.252 123.76 57.3987 123.291 56.588L122.907 56.076L123.291 55.596L127.195 55.18V68.684ZM130.614 70.412L131.35 70.22C132.033 70.028 132.545 69.7507 132.886 69.388C133.227 69.004 133.398 68.4067 133.398 67.596V51.436C133.398 51.1587 133.345 50.9667 133.238 50.86C133.131 50.732 132.95 50.668 132.694 50.668H130.838L130.454 49.484C131.478 49.1213 132.801 48.8013 134.422 48.524C136.043 48.2253 137.611 48.076 139.126 48.076C143.585 48.076 146.785 49.1853 148.726 51.404C150.689 53.6013 151.67 56.4813 151.67 60.044C151.67 62.22 151.265 64.172 150.454 65.9C149.665 67.628 148.47 68.9933 146.87 69.996C145.291 70.9987 143.35 71.5 141.046 71.5H130.998L130.614 70.412ZM136.566 65.9C136.566 67.4147 136.875 68.46 137.494 69.036C138.134 69.5907 138.977 69.868 140.022 69.868C145.462 69.868 148.182 66.572 148.182 59.98C148.182 58.188 147.873 56.524 147.254 54.988C146.635 53.452 145.686 52.2147 144.406 51.276C143.147 50.3373 141.579 49.868 139.702 49.868C137.611 49.868 136.566 50.3587 136.566 51.34V65.9ZM152.643 63.564C152.643 61.8573 152.952 60.3747 153.571 59.116C154.211 57.8573 155.117 56.8867 156.291 56.204C157.485 55.5213 158.872 55.18 160.451 55.18C162.029 55.18 163.405 55.5213 164.579 56.204C165.752 56.8867 166.659 57.8573 167.299 59.116C167.939 60.3747 168.259 61.8573 168.259 63.564C168.259 65.2493 167.939 66.732 167.299 68.012C166.659 69.2707 165.752 70.2413 164.579 70.924C163.405 71.6067 162.029 71.948 160.451 71.948C158.872 71.948 157.485 71.6067 156.291 70.924C155.117 70.2413 154.211 69.2707 153.571 68.012C152.952 66.732 152.643 65.2493 152.643 63.564ZM164.899 63.66C164.899 62.6573 164.76 61.6333 164.483 60.588C164.205 59.5427 163.736 58.6573 163.075 57.932C162.435 57.2067 161.592 56.844 160.547 56.844C159.651 56.844 158.851 57.132 158.147 57.708C157.464 58.2627 156.931 59.052 156.547 60.076C156.163 61.1 155.971 62.2733 155.971 63.596C155.971 65.6227 156.365 67.2333 157.155 68.428C157.944 69.6227 159.011 70.22 160.355 70.22C161.229 70.22 162.008 69.9533 162.691 69.42C163.395 68.8653 163.939 68.0973 164.323 67.116C164.707 66.1133 164.899 64.9613 164.899 63.66ZM182.023 68.204C182.087 68.14 182.183 68.108 182.311 68.108C182.481 68.108 182.652 68.204 182.823 68.396C183.015 68.588 183.111 68.7907 183.111 69.004C183.111 69.132 183.079 69.228 183.015 69.292C182.268 70.1453 181.393 70.8067 180.391 71.276C179.409 71.724 178.364 71.948 177.255 71.948C175.783 71.948 174.46 71.596 173.287 70.892C172.113 70.1667 171.196 69.1747 170.535 67.916C169.873 66.636 169.543 65.196 169.543 63.596C169.543 61.9107 169.863 60.4387 170.503 59.18C171.143 57.9 172.039 56.9187 173.191 56.236C174.364 55.532 175.729 55.18 177.287 55.18C178.929 55.18 180.273 55.5853 181.319 56.396C182.385 57.1853 182.919 58.2093 182.919 59.468C182.919 60.3853 182.62 61.1427 182.023 61.74C181.447 62.316 180.7 62.604 179.783 62.604C179.377 62.604 179.175 62.4867 179.175 62.252C179.175 62.188 179.249 62.0387 179.399 61.804C179.548 61.5693 179.676 61.2813 179.783 60.94C179.889 60.5987 179.943 60.1613 179.943 59.628C179.943 58.7747 179.665 58.1027 179.111 57.612C178.577 57.1 177.852 56.844 176.935 56.844C175.719 56.844 174.737 57.4413 173.991 58.636C173.244 59.8307 172.871 61.3987 172.871 63.34C172.871 65.324 173.308 66.9027 174.183 68.076C175.079 69.228 176.284 69.804 177.799 69.804C179.335 69.804 180.743 69.2707 182.023 68.204ZM190.496 70.38C191.371 70.38 192.085 70.1453 192.64 69.676C193.216 69.1853 193.504 68.556 193.504 67.788C193.504 67.1053 193.205 66.5507 192.608 66.124C192.032 65.6973 191.168 65.2387 190.016 64.748C188.971 64.3213 188.096 63.9053 187.392 63.5C186.709 63.0947 186.123 62.572 185.632 61.932C185.141 61.2707 184.896 60.46 184.896 59.5C184.896 58.22 185.44 57.1853 186.528 56.396C187.637 55.5853 189.035 55.18 190.72 55.18C192.235 55.18 193.493 55.4787 194.496 56.076C195.499 56.6733 196 57.4733 196 58.476C196 59.2867 195.744 59.9587 195.232 60.492C194.741 61.004 194.101 61.26 193.312 61.26C192.864 61.26 192.64 61.1213 192.64 60.844C192.64 60.7587 192.715 60.5453 192.864 60.204C193.035 59.8413 193.12 59.4573 193.12 59.052C193.12 58.2627 192.853 57.676 192.32 57.292C191.787 56.908 191.179 56.716 190.496 56.716C189.621 56.716 188.928 56.94 188.416 57.388C187.925 57.8147 187.68 58.3693 187.68 59.052C187.68 59.8413 187.989 60.4813 188.608 60.972C189.248 61.4413 190.187 61.932 191.424 62.444C192.448 62.8707 193.301 63.276 193.984 63.66C194.667 64.0227 195.243 64.492 195.712 65.068C196.181 65.644 196.416 66.3373 196.416 67.148C196.416 68.5987 195.84 69.7613 194.688 70.636C193.536 71.5107 192 71.948 190.08 71.948C188.459 71.948 187.125 71.5853 186.08 70.86C185.035 70.1347 184.512 69.164 184.512 67.948C184.512 67.2227 184.757 66.6253 185.248 66.156C185.739 65.6867 186.379 65.452 187.168 65.452C187.616 65.452 187.84 65.58 187.84 65.836C187.84 65.9 187.776 66.1027 187.648 66.444C187.52 66.764 187.456 67.1587 187.456 67.628C187.456 68.524 187.765 69.2067 188.384 69.676C189.024 70.1453 189.728 70.38 190.496 70.38Z" fill="#35374B"/>
</svg>
