<svg width="60" height="90" viewBox="0 0 60 90" fill="none" xmlns="http://www.w3.org/2000/svg">
<path d="M14.3963 50.5723C14.4074 50.2993 14.6313 50.0827 14.9046 50.0827H46.1389C46.4206 50.0827 46.6463 50.2988 46.6333 50.5801C46.4662 54.1959 45.0416 76.6581 35.0699 89.3092C34.8281 89.616 34.3455 89.5316 34.2098 89.1653C33.3037 86.7214 30.4074 79.5241 26.4927 75.8783C26.3324 75.7289 26.0977 75.7082 25.9094 75.8203C20.0383 79.3149 9.28193 82.9621 5.62475 84.1541C5.18632 84.297 4.81666 83.8143 5.04763 83.4151C13.2633 69.2179 14.2765 53.5167 14.3963 50.5723Z" fill="#EE5861"/>
<path d="M2.50754 15.496C2.46624 14.6412 2.92782 13.8441 3.68947 13.4543C6.11045 12.2152 8.89341 11.1986 11.9071 10.4048C12.6425 10.2111 13.2512 9.69399 13.561 8.99934C14.9292 5.93227 16.5096 3.16363 18.274 0.854189C18.79 0.17893 19.6492 -0.132684 20.4784 0.0528165C23.2563 0.674279 26.1692 1.72694 29.1075 3.11879C29.7832 3.43884 30.567 3.4408 31.2445 3.12478C34.0078 1.83591 36.7366 0.858533 39.3352 0.272769C40.164 0.0859245 41.023 0.397842 41.54 1.07225C43.3359 3.41489 44.9418 6.20848 46.3302 9.29471C46.6335 9.96896 47.2194 10.4753 47.9299 10.6795C50.4614 11.4072 52.8065 12.3009 54.8814 13.3606C55.6434 13.7498 56.1049 14.5469 56.064 15.4017C55.9503 17.7805 55.5509 20.3056 54.9089 22.9036C54.7322 23.6185 54.8768 24.3759 55.3059 24.9743C57.1892 27.6008 58.7331 30.2592 59.8286 32.8578C60.1618 33.6483 60.0011 34.5578 59.4164 35.1853C57.6723 37.057 55.553 38.8511 53.1628 40.5298C52.5499 40.9603 52.16 41.6423 52.1009 42.3891C51.8453 45.6156 51.3074 48.6488 50.4626 51.3475C50.2079 52.1612 49.5044 52.7498 48.6586 52.8563C45.8844 53.2057 42.8282 53.1998 39.6252 52.8873C38.8696 52.8136 38.1206 53.086 37.5891 53.6281C35.2559 56.0072 32.8254 58.0448 30.3752 59.6077C29.6598 60.0642 28.7471 60.0643 28.0322 59.607C25.5374 58.0108 23.0579 55.9052 20.68 53.4379C20.1683 52.907 19.4482 52.6283 18.7123 52.6744C16.0944 52.8385 13.5903 52.7875 11.2763 52.4938C10.4307 52.3865 9.72714 51.7981 9.47296 50.9843C8.68006 48.4457 8.16046 45.6026 7.89277 42.5768C7.8277 41.8413 7.44224 41.1709 6.83945 40.7447C4.4533 39.0574 2.33341 37.2541 0.582978 35.3719C-0.00114913 34.7438 -0.161993 33.8343 0.171747 33.0441C1.07196 30.9127 2.27921 28.737 3.73099 26.5694C4.14032 25.9582 4.26277 25.1979 4.06422 24.4895C3.18764 21.3623 2.64407 18.3221 2.50754 15.496Z" fill="#FFE500"/>
<path d="M45.1686 29.8557C45.1686 38.1599 37.1188 44.1107 28.7414 44.1107C20.364 44.1107 14.8314 38.1599 14.8314 29.8557C14.8314 21.5516 22.7522 15.4455 31.1296 15.4455C39.507 15.4455 45.1686 21.5516 45.1686 29.8557Z" fill="white"/>
<path d="M19.0359 37.3073L19.6091 37.1709C20.2403 37.0042 20.6639 36.7845 20.8799 36.5117C21.0958 36.239 21.2038 35.7541 21.2038 35.057V24.7831C21.2038 24.0861 21.0958 23.6012 20.8799 23.3284C20.6639 23.0557 20.2403 22.836 19.6091 22.6693L19.0359 22.5329L19.335 21.7601H24.792L25.116 22.1237L24.792 22.5329C24.3767 23.0329 24.086 23.5633 23.9199 24.124C23.7538 24.6846 23.6707 25.4196 23.6707 26.3288V35.2161C23.6707 35.8677 23.7704 36.3223 23.9697 36.5799C24.1691 36.8375 24.5761 37.0497 25.1907 37.2164L25.714 37.3528L25.4399 38.0801H19.335L19.0359 37.3073Z" fill="#253E64"/>
<path d="M26.5746 37.3073L27.1477 37.1709C27.779 37.0042 28.2026 36.7845 28.4186 36.5117C28.6345 36.239 28.7425 35.7541 28.7425 35.057V24.7831C28.7425 24.0861 28.6345 23.6012 28.4186 23.3284C28.2026 23.0557 27.779 22.836 27.1477 22.6693L26.5746 22.5329L26.8736 21.7601H32.3307L32.6546 22.1237L32.3307 22.5329C31.9154 23.0329 31.6247 23.5633 31.4586 24.124C31.2924 24.6846 31.2094 25.4196 31.2094 26.3288V35.2161C31.2094 35.8677 31.3091 36.3223 31.5084 36.5799C31.7077 36.8375 32.1147 37.0497 32.7294 37.2164L33.2527 37.3528L32.9786 38.0801H26.8736L26.5746 37.3073Z" fill="#253E64"/>
<path d="M34.1133 37.3073L34.6864 37.1709C35.3177 37.0042 35.7413 36.7845 35.9572 36.5117C36.1732 36.239 36.2812 35.7541 36.2812 35.057V24.7831C36.2812 24.0861 36.1732 23.6012 35.9572 23.3284C35.7413 23.0557 35.3177 22.836 34.6864 22.6693L34.1133 22.5329L34.4123 21.7601H39.8694L40.1933 22.1237L39.8694 22.5329C39.4541 23.0329 39.1634 23.5633 38.9972 24.124C38.8311 24.6846 38.7481 25.4196 38.7481 26.3288V35.2161C38.7481 35.8677 38.8477 36.3223 39.0471 36.5799C39.2464 36.8375 39.6534 37.0497 40.2681 37.2164L40.7913 37.3528L40.5172 38.0801H34.4123L34.1133 37.3073Z" fill="#253E64"/>
</svg>
