<svg width="64" height="64" viewBox="0 0 64 64" fill="none" xmlns="http://www.w3.org/2000/svg">
<path d="M32 4C16.5375 4 4 16.5375 4 32C4 47.4625 16.5375 60 32 60C47.4625 60 60 47.4625 60 32C60 16.5375 47.4625 4 32 4ZM32 55.25C19.1625 55.25 8.75 44.8375 8.75 32C8.75 19.1625 19.1625 8.75 32 8.75C44.8375 8.75 55.25 19.1625 55.25 32C55.25 44.8375 44.8375 55.25 32 55.25Z" fill="#EE5861"/>
<path d="M44.962 31.1944L26.4558 17.7569C26.3073 17.6481 26.1316 17.5826 25.9482 17.5678C25.7648 17.553 25.5808 17.5895 25.4169 17.6731C25.2529 17.7567 25.1154 17.8841 25.0196 18.0413C24.9239 18.1984 24.8736 18.3791 24.8745 18.5631V45.4382C24.8745 46.257 25.7995 46.7195 26.4558 46.2445L44.962 32.8069C45.0898 32.7149 45.1939 32.5938 45.2656 32.4536C45.3374 32.3134 45.3748 32.1582 45.3748 32.0007C45.3748 31.8432 45.3374 31.688 45.2656 31.5478C45.1939 31.4076 45.0898 31.2865 44.962 31.1944ZM28.862 39.5694V24.4319L39.2808 32.0007L28.862 39.5694Z" fill="#EE5861"/>
</svg>
